<svg xmlns="http://www.w3.org/2000/svg" aria-hidden="true" overflow="hidden" style="position:absolute;width:0;height:0">
  <defs>
    <symbol id="icon-facebook" viewBox="0 0 32 32">
      <path d="M21.4 6h-2.59c-2.91 0-4.8 1.93-4.8 4.92v2.27h-2.6a.4.4 0 0 0-.41.4v3.3c0 .22.18.4.4.4h2.61v8.3c0 .23.19.41.41.41h3.4a.4.4 0 0 0 .41-.4v-8.3h3.05a.4.4 0 0 0 .41-.41v-3.3a.4.4 0 0 0-.4-.4h-3.06v-1.92c0-.93.22-1.4 1.43-1.4h1.74a.4.4 0 0 0 .41-.4V6.4a.4.4 0 0 0-.4-.4z"/>
    </symbol>
    <symbol id="icon-instagram" viewBox="0 0 32 32">
      <path d="M19.75 6h-7.5A6.25 6.25 0 0 0 6 12.25v7.5C6 23.2 8.8 26 12.25 26h7.5C23.2 26 26 23.2 26 19.75v-7.5C26 8.8 23.2 6 19.75 6zm4.38 13.75a4.38 4.38 0 0 1-4.38 4.38h-7.5a4.38 4.38 0 0 1-4.38-4.38v-7.5a4.38 4.38 0 0 1 4.38-4.38h7.5a4.38 4.38 0 0 1 4.38 4.38v7.5z"/>
      <path d="M16 11a5 5 0 1 0 0 10 5 5 0 0 0 0-10zm0 8.13a3.13 3.13 0 1 1 0-6.26 3.13 3.13 0 0 1 0 6.26zm5.38-7.83a.67.67 0 1 0 0-1.34.67.67 0 0 0 0 1.33z"/>
    </symbol>
    <symbol id="icon-vk" viewBox="0 0 32 32">
      <path d="M30.52 23.65a15.47 15.47 0 0 0-2.88-3.7l-.03-.02-.02-.02-.01-.01h-.02a17.74 17.74 0 0 1-1.18-1.3c-.3-.42-.37-.85-.2-1.28.12-.33.55-1.02 1.31-2.07l.95-1.35c1.68-2.42 2.4-3.97 2.18-4.65l-.08-.15c-.06-.1-.21-.19-.45-.27s-.56-.09-.94-.03l-4.2.03c-.06-.03-.16-.03-.29 0l-.19.05-.07.04-.06.05a1.04 1.04 0 0 0-.3.44 26.9 26.9 0 0 1-2.56 5.26 5.56 5.56 0 0 1-1.31 1.6c-.16.15-.29.2-.38.18a8.86 8.86 0 0 1-.24-.06c-.14-.1-.25-.22-.33-.39s-.14-.37-.17-.61a7.4 7.4 0 0 1-.04-1.4l.01-.67c0-.4 0-.83.02-1.3l.04-1.12.01-.87c0-.3-.01-.54-.05-.72-.03-.17-.08-.34-.15-.5s-.17-.3-.3-.38a1.6 1.6 0 0 0-.49-.22 9.01 9.01 0 0 0-1.97-.2c-1.8-.03-2.96.1-3.48.38a2 2 0 0 0-.55.47c-.18.23-.2.36-.08.38.59.1 1 .32 1.24.68l.09.19c.07.14.14.38.2.73s.12.73.14 1.15a13.22 13.22 0 0 1-.34 4l-.17.35a.25.25 0 0 1-.08.08c-.12.05-.26.08-.4.08s-.3-.08-.49-.22c-.2-.15-.4-.35-.6-.61s-.45-.62-.71-1.09c-.26-.46-.53-1-.82-1.64l-.23-.46a40.72 40.72 0 0 1-1.27-2.93c-.08-.22-.2-.39-.35-.5L8.16 9c-.05-.04-.13-.09-.23-.13s-.22-.09-.34-.1l-4 .02c-.4 0-.68.1-.82.3l-.06.1c-.03.05-.05.14-.05.25s.03.26.1.43a54.37 54.37 0 0 0 3.68 7.64 39.46 39.46 0 0 0 2.99 4.3l.36.38c.24.26.58.56 1.03.91s.95.7 1.5 1.05a7.83 7.83 0 0 0 4.05 1.1h1.68c.34-.04.6-.15.77-.35l.06-.08a2.01 2.01 0 0 0 .16-.73 5.15 5.15 0 0 1 .34-2.05 2.03 2.03 0 0 1 .56-.7.75.75 0 0 1 .12-.05c.23-.08.5 0 .82.25s.61.55.89.91c.28.37.6.78 1 1.23s.73.8 1.02 1.01l.29.2c.2.12.45.24.76.34s.58.13.81.08l3.74-.06c.36 0 .65-.07.86-.2s.32-.28.36-.44c.04-.15.04-.33 0-.53s-.06-.34-.1-.42z"/>
    </symbol>
    <symbol id="icon-youtube" viewBox="0 0 32 32">
      <path d="M23.8 6.67H8.2c-3.05 0-5.53 2.63-5.53 5.87v8.26c0 3.24 2.48 5.87 5.54 5.87H23.8c3.05 0 5.53-2.63 5.53-5.87v-8.26c0-3.25-2.48-5.87-5.53-5.87zm-3.75 10.4-7.3 3.68c-.19.1-.41-.05-.41-.28v-7.6c0-.23.23-.38.42-.28l7.3 3.92c.21.12.2.45-.01.56z"/>
    </symbol>
    <symbol id="icon-bench" viewBox="0 0 32 32">
      <path d="M29.33 18.13c.3 0 .54-.24.54-.53v-2.13c0-.3-.24-.54-.54-.54h-2.66v-.53a.53.53 0 1 0-1.07 0v.53H10.67v-.53a.53.53 0 1 0-1.07 0v.53H6.93a.54.54 0 0 0-.53.54v2.13c0 .3.24.53.53.53h22.4zM7.47 17.07V16H28.8v1.07H7.47zm11.73-5.34c-.6.03-1.12.3-1.48.73a.53.53 0 0 0 .08.75c.22.19.56.15.74-.07 0 0 .3-.34.66-.34s.65.34.65.34a.53.53 0 1 0 .83-.68c-.36-.42-.88-.7-1.48-.73z"/>
      <path d="M29.33 22.4c.3 0 .54-.24.54-.53v-2.14a.54.54 0 0 0-.54-.53h-2.66v-.53a.53.53 0 1 0-1.07 0v.53H10.67v-.53a.53.53 0 1 0-1.07 0v.53H6.93a.53.53 0 0 0-.53.53v2.14c0 .29.24.53.53.53h22.4zM7.47 21.33v-1.06H28.8v1.06H7.47zm14.52-10.86a.53.53 0 1 0 .82-.68c-.36-.42-.88-.7-1.47-.72-.6.02-1.13.3-1.49.72a.53.53 0 0 0 .08.75c.22.19.56.16.74-.07 0 0 .3-.34.66-.34s.66.34.66.34zM.54 6.99c.02.27.25.48.53.48h3.2c.27 0 .5-.21.53-.48l.53-5.34V1.6c0-.3-.23-.53-.53-.53H3.2V.53a.53.53 0 1 0-1.07 0v.54H.53a.53.53 0 0 0-.53.58L.54 7zM4.2 2.13 3.78 6.4H1.55l-.43-4.27h3.1z"/>
      <path d="M14.93 12.27c0 .6.25 1.15.69 1.56a.53.53 0 0 0 .75-.03.54.54 0 0 0-.03-.76 1.05 1.05 0 0 1 .36-1.77.53.53 0 0 0 .18-.89c-.21-.2-.35-.47-.35-.78 0-.55.44-1.02 1-1.05a.53.53 0 0 0 .36-.9 1.06 1.06 0 0 1-.29-.72c0-.55.44-1.01 1-1.05a.53.53 0 0 0 .35-.9 1.06 1.06 0 0 1 .5-1.74.53.53 0 0 0 .36-.71 1.07 1.07 0 1 1 1.97 0 .53.53 0 0 0 .35.71h.01c.46.13.79.54.8 1.03 0 .26-.1.52-.29.72a.53.53 0 0 0 .35.89c.56.04 1 .5 1 1.05 0 .27-.1.52-.28.72a.53.53 0 0 0 .36.9 1.05 1.05 0 0 1 .64 1.83c-.1.1-.17.24-.17.39 0 .23.15.42.35.5.41.16.7.54.7 1a.53.53 0 1 0 1.07 0c0-.65-.3-1.26-.8-1.65a2.13 2.13 0 0 0-.94-2.92v-.01a2.13 2.13 0 0 0-1.05-2.66l-.02-.01a2.13 2.13 0 0 0-.94-2.6l.02-.31a2.14 2.14 0 1 0-4.25.32V2.4a2.14 2.14 0 0 0-.94 2.62V5a2.14 2.14 0 0 0-1.07 2.69v-.01a2.14 2.14 0 0 0-.95 2.94v-.02c-.49.4-.8.99-.8 1.66z"/>
      <path d="M20.06 7.42c.28.12.59-.01.7-.28l.04-.08.04.08a.54.54 0 0 0 .99-.4c-.06-.15-.39-.87-1.03-.87s-.97.72-1.03.86c-.11.27.02.58.3.7zm11.4 23.51h-8.53a.53.53 0 1 0 0 1.07h8.54a.53.53 0 1 0 0-1.07zm0-7.46h-4.8v-.54a.53.53 0 1 0-1.06 0v.54H10.67v-.54a.53.53 0 1 0-1.07 0v.54H4.8c-.3 0-.53.24-.53.53v2.13c0 .3.24.54.53.54h1.6v2.66a.53.53 0 1 0 1.07 0v-2.66H28.8v2.66a.53.53 0 1 0 1.07 0v-2.66h1.6c.29 0 .53-.24.53-.54V24c0-.3-.24-.53-.53-.53zm-.53 2.13H5.33v-1.07h25.6v1.07z"/>
      <path d="M8 30.93H3.2V9.07a.53.53 0 1 0-1.07 0v21.86H.53a.53.53 0 1 0 0 1.07H8a.53.53 0 1 0 0-1.07zm12.8 0h-1.07a.53.53 0 1 0 0 1.07h1.07a.53.53 0 1 0 0-1.07zm-4.27 0H11.2a.53.53 0 1 0 0 1.07h5.33a.53.53 0 1 0 0-1.07z"/>
    </symbol>
    <symbol id="icon-bicycle" viewBox="0 0 32 32">
      <path d="M8 27.2H.52a.54.54 0 0 0 0 1.08H8a.54.54 0 0 0 0-1.08zm-1.6-1.08a6.4 6.4 0 0 0 4.4-11.04c-.2-.2-.52-.16-.72 0-.24.24-.2.6 0 .8a5.3 5.3 0 0 1-3.68 9.16 5.32 5.32 0 0 1 0-10.64.54.54 0 0 0 0-1.08 6.4 6.4 0 1 0 0 12.8z"/>
      <path d="M9.08 11.2h.24l-3.08 7.48a1.08 1.08 0 1 0 1 .4l3-7.32 3.4 4.92a.53.53 0 1 0 .88-.6l-3.36-4.88h1.12a1.6 1.6 0 1 0 0-3.2h-3.2c-.32 0-.56.24-.56.52v2.16c0 .28.24.52.56.52zm.52-2.12h2.68a.52.52 0 0 1 0 1.04H9.6V9.08zm15.48 4.8c0 .28.24.52.52.52a5.32 5.32 0 1 1-3.4 1.2.53.53 0 1 0-.68-.8 6.4 6.4 0 1 0 4.1-1.48h-.02c-.28 0-.52.24-.52.56zM16.52 27.2H11.2a.54.54 0 0 0 0 1.08h5.32a.54.54 0 0 0 0-1.08z"/>
      <path d="M16.52 17.16v-1.68a.54.54 0 0 0 0-1.08h-1.04a.54.54 0 0 0 0 1.08v1.68a2.12 2.12 0 0 0-.01 4.08h.01v1.68a.54.54 0 0 0 0 1.08h1.04a.54.54 0 0 0 0-1.08v-1.68a2.12 2.12 0 0 0 .02-4.08h-.02zM16 20.28a1.08 1.08 0 0 1 0-2.16 1.08 1.08 0 0 1 0 2.16zm8.8-1.2a1.04 1.04 0 0 0 .79 1.72h.01c.6 0 1.08-.48 1.08-1.08 0-.52-.4-.96-.92-1.04l-2.4-6.4h3.84c.64 0 1.04-.52 1.08-.96l.56-2.68a.52.52 0 0 0-.5-.64h-4.83a.54.54 0 0 0 0 1.08h4.08l-.4 2v.12h-4.28l-1.68-4.44-1.04-2.68c-.12-.28-.4-.4-.72-.32-.24.12-.4.4-.28.72l.96 2.4-2 3.52a.53.53 0 0 0 .92.52l1.6-2.72L22 11.6l-4.08 4.56a.54.54 0 0 0 .8.72l3.68-4.16 2.4 6.36zm6.68 8.12h-8.56a.54.54 0 0 0 0 1.08h8.56a.54.54 0 0 0 0-1.08zm-10.68 0h-1.08a.54.54 0 0 0 0 1.08h1.08a.54.54 0 0 0 0-1.08z"/>
    </symbol>
    <symbol id="icon-building" viewBox="0 0 32 32">
      <path d="M22.92 29.88H8a.53.53 0 0 0-.52.52v1.08a.52.52 0 0 0 1.04 0v-.56h14.4a.52.52 0 0 0 0-1.04zm-11.2-16.56c0 .32.24.56.56.56h2.12c.28 0 .52-.24.52-.56v-3.2a.53.53 0 0 0-.52-.52h-2.12c-.32 0-.56.24-.56.52v3.2zm1.08-2.64h1.08v2.12H12.8v-2.12zM6.92 6.4H.52a.53.53 0 0 0-.52.52V17.6a.54.54 0 0 0 1.08 0V7.48h5.84a.54.54 0 0 0 0-1.08zM25.6 26.12c0 .32.24.56.52.56h2.16c.28 0 .52-.24.52-.56v-3.2a.53.53 0 0 0-.52-.52h-2.16a.53.53 0 0 0-.52.52v3.2zm1.08-2.64h1.04v2.12h-1.04v-2.12zm-24-4.28C0 19.2 0 26.08 0 26.12c0 1.32.92 2.4 2.12 2.64v2.72a.54.54 0 0 0 1.08 0v-2.72a2.7 2.7 0 0 0 2.12-2.64c0-.04 0-6.92-2.64-6.92zm0 8.52a1.6 1.6 0 0 1-1.6-1.6c0-2.64.72-5.84 1.6-5.84s1.6 3.2 1.6 5.84c0 .88-.72 1.6-1.6 1.6zM5.88 16H3.72a.53.53 0 0 0-.52.52v1.08a.54.54 0 0 0 1.08 0v-.52h1.04v2.64a.54.54 0 0 0 1.08 0v-3.2a.53.53 0 0 0-.52-.52zm20.24-2.12h2.16c.28 0 .52-.24.52-.56v-3.2a.53.53 0 0 0-.52-.52h-2.16a.53.53 0 0 0-.52.52v3.2c0 .32.24.56.52.56zm.56-3.2h1.04v2.12h-1.04v-2.12z"/>
      <path d="M5.88 9.6H3.72a.53.53 0 0 0-.52.52v3.2c0 .32.24.56.52.56h2.16c.28 0 .52-.24.52-.56v-3.2a.53.53 0 0 0-.52-.52zm-.56 3.2H4.28v-2.12h1.04v2.12zm11.76.52c0 .32.24.56.52.56h2.12c.32 0 .56-.24.56-.56v-3.2c0-.28-.24-.52-.56-.52H17.6a.53.53 0 0 0-.52.52v3.2zm1.04-2.64h1.08v2.12h-1.08v-2.12zM31.48 6.4h-6.4a.54.54 0 0 0 0 1.08h5.84v21.4a1.57 1.57 0 0 0-.81-.04h.01a2.12 2.12 0 0 0-1.84-1.12c-.8 0-1.52.44-1.88 1.12h-.14a1.6 1.6 0 0 0-.15 3.2h4.29c.88 0 1.6-.72 1.6-1.6V6.92a.53.53 0 0 0-.52-.52zM30.4 30.92h-4.28a.52.52 0 0 1 0-1.04c.12 0 .2 0 .32.08.08.06.18.09.3.09.24 0 .45-.17.5-.4a1.08 1.08 0 0 1 2.08-.02v.01a.52.52 0 0 0 .8.32c.32-.24.8.04.8.44 0 .28-.24.52-.52.52zM17.6 7.48h2.12c.32 0 .56-.24.56-.56v-3.2c0-.28-.24-.52-.56-.52H17.6a.53.53 0 0 0-.52.52v3.2c0 .32.24.56.52.56zm.52-3.2h1.08V6.4h-1.08V4.28zm-1.04 15.44c0 .32.24.56.52.56h2.12c.32 0 .56-.24.56-.56v-3.2c0-.28-.24-.52-.56-.52H17.6a.53.53 0 0 0-.52.52v3.2zm1.04-2.64h1.08v2.12h-1.08v-2.12zm-5.84-9.6h2.12c.28 0 .52-.24.52-.56v-3.2a.53.53 0 0 0-.52-.52h-2.12c-.32 0-.56.24-.56.52v3.2c0 .32.24.56.56.56zm.52-3.2h1.08V6.4H12.8V4.28zm2.8 21.48c-.08.08-.12.24-.12.4 0 .12.04.24.16.36.08.08.24.16.36.16s.28-.08.4-.16a.68.68 0 0 0 .12-.4.57.57 0 0 0-.16-.4.6.6 0 0 0-.72 0zm-3.88-6.04c0 .32.24.56.56.56h2.12c.28 0 .52-.24.52-.56v-3.2a.53.53 0 0 0-.52-.52h-2.12c-.32 0-.56.24-.56.52v3.2zm1.08-2.64h1.08v2.12H12.8v-2.12z"/>
      <path d="M10.68 22.92c0 .32.24.56.52.56h1.6v4.8a.54.54 0 0 0 1.08 0v-4.8h4.24v4.8a.54.54 0 0 0 1.08 0v-4.8h1.6a.54.54 0 0 0 0-1.08h-9.6a.53.53 0 0 0-.52.52zm14.92-3.2c0 .32.24.56.52.56h2.16c.28 0 .52-.24.52-.56v-3.2a.53.53 0 0 0-.52-.52h-2.16a.53.53 0 0 0-.52.52v3.2zm1.08-2.64h1.04v2.12h-1.04v-2.12z"/>
      <path d="M22.92 0H9.08c-.32 0-.56.24-.56.52v27.76a.54.54 0 0 0 1.08 0V1.08h12.8v27.2a.54.54 0 0 0 1.08 0V.52c0-.28-.28-.52-.56-.52z"/>
    </symbol>
    <symbol id="icon-fountain" viewBox="0 0 32 32">
      <path d="m21.36 1.84.2-.04.48-.2a.54.54 0 1 0-.4-1l-.52.24a.52.52 0 0 0 .2 1h.04zm-.04 11.56c.32 0 .56-.24.56-.52v-.48a.53.53 0 0 0-1.04-.16l-.04.56v.08c0 .28.24.52.52.52zm-2.64.16c.28 0 .52-.24.52-.56v-.52a.54.54 0 0 0-1.08 0V13c0 .32.24.56.56.56zm3.04-8.44-.48.28a.55.55 0 1 0 .6.92l.4-.28c.16-.1.27-.26.27-.46a.53.53 0 0 0-.8-.46h.01zm-7.56-.08a.54.54 0 1 0 .92-.56L14.76 4a.55.55 0 1 0-.88.64l.28.4zm9.76-3.92H24l.48-.04A.54.54 0 0 0 24.44 0h-.04l-.56.08a.52.52 0 0 0 .04 1.04h.04zm-2 8.76a.54.54 0 0 0 .8.72l.4-.32a.54.54 0 1 0-.72-.8c-.16.08-.32.24-.48.4zm-4.8-4.68c.08.08.16.12.28.12.16 0 .32-.12.4-.28l.32-.4A.56.56 0 0 0 17.2 4l-.32.48c-.16.24-.08.6.2.76zm4.2 10.8c.32 0 .56-.24.56-.56v-.24a.54.54 0 0 0-1.08 0v.24c0 .32.24.56.52.56zm-2.68-5.2.08.04c.28 0 .48-.2.52-.48l.12-.48a.53.53 0 0 0-1.04-.24l-.12.6c-.04.28.16.56.44.6zm-3.6-3.92.12.48a.52.52 0 0 0 .68.4l.16-.12c.09.07.2.12.32.12.24 0 .44-.16.52-.4l.12-.48a.5.5 0 0 0-.32-.68c-.24-.08-.52 0-.64.28a.52.52 0 1 0-.96.4zm4.08-3.6.36-.12.4-.32a.54.54 0 0 0-.34-.96.54.54 0 0 0-.34.12l-.4.36a.52.52 0 0 0 .32.92zm.4 3.72-.32.48a.53.53 0 0 0 .88.6l.32-.4c.07-.1.12-.21.12-.34a.56.56 0 0 0-1-.34zm5-2.72c-.2 0-.4 0-.6.08a.53.53 0 1 0 .2 1.04l.48-.04a.54.54 0 0 0-.04-1.08h-.04zm1.96-3.08c.26.02.48.05.7.09l-.06-.01h.04A.52.52 0 0 0 27.2.24c-.16-.08-.36-.08-.52-.12a.53.53 0 0 0-.2 1.04zm.92 3.48-.56-.2c-.28-.08-.56.12-.64.4s.08.56.4.64l.44.16a.54.54 0 0 0 .74-.5.54.54 0 0 0-.34-.5zm-2.56 3.84a.5.5 0 0 0-.48.56c0 .32.24.52.56.52a3 3 0 0 1 .53 0h-.01.04a.52.52 0 0 0 .04-1.04h-.72zm6.24-4.96a.54.54 0 1 0 .8-.72l-.2-.2a.54.54 0 1 0-.8.72l.2.2zm-8.16 16.68h-6.4a.54.54 0 0 0 0 1.08h6.4c1.52 0 2.68-1.2 2.68-2.68V17.6c0-.32-.24-.56-.52-.56H6.92c-.28 0-.52.24-.52.56v1.04c0 1.52 1.2 2.68 2.68 2.68h4.8V24a.52.52 0 0 0 1.04 0v-3.2c0-.32-.24-.56-.52-.56H9.08a1.6 1.6 0 0 1-1.6-1.6v-.52h17.04v.52c0 .88-.72 1.6-1.6 1.6zm5.32-7.68v.24a.54.54 0 0 0 1.08 0v-.32a.5.5 0 0 0-.56-.48c-.32 0-.52.28-.52.56zM27.12 9.6a.6.6 0 0 0 .04.8l.4.32c.1.11.24.18.4.18a.52.52 0 0 0 .4-.86l-.48-.44a.56.56 0 0 0-.76 0zm-10.6 2.64a.52.52 0 0 0-1.04 0v.56a.52.52 0 0 0 1.04 0v-.56zm-.52 2.4c-.28 0-.52.24-.52.56v.24a.52.52 0 0 0 1.04 0v-.24c0-.32-.24-.56-.52-.56zm2.12.8a.54.54 0 0 0 1.08 0v-.24a.54.54 0 0 0-1.08 0v.24zm-1.6-5.84v-.28c0-.2-.12-.4-.32-.48h-.04L16 8.8h-.2c-.2.12-.36.32-.32.52v.52a.52.52 0 0 0 1.04 0V9.6zm-3.72 5.84a.54.54 0 0 0 1.08 0v-.24a.54.54 0 0 0-1.08 0v.24zm.52-1.88c.32 0 .56-.24.56-.56v-.52a.54.54 0 0 0-1.08 0V13c0 .32.24.56.52.56zm-2.12 1.88v-.24a.54.54 0 0 0-1.08 0v.24a.54.54 0 0 0 1.08 0zM3.72 10.8a.52.52 0 0 0 .76-.08c.12-.12.2-.24.36-.32a.54.54 0 1 0-.72-.8l-.52.4a.62.62 0 0 0 .08.8z"/>
      <path d="M29.32 25.6h-11.2v-2.68a.52.52 0 0 0-1.04 0v3.2c0 .28.24.52.52.52h11.2v2.68c0 .88-.72 1.6-1.6 1.6H4.8a1.6 1.6 0 0 1-1.6-1.6v-2.68h12.32a.52.52 0 0 0 0-1.04H2.68c-.32 0-.56.24-.56.52v3.2C2.12 30.8 3.32 32 4.8 32h22.4c1.48 0 2.68-1.2 2.68-2.68v-3.2c0-.28-.24-.52-.56-.52z"/>
      <path d="M12.8 28.24v1.08a.54.54 0 0 0 1.08 0v-1.08a.54.54 0 0 0-1.08 0zM.56 10.4c-.32 0-.56.2-.56.52v.28a.54.54 0 0 0 1.08 0v-.24c0-.32-.24-.56-.52-.56zm2.32-3.44.36-.32c.11-.1.18-.24.18-.4a.52.52 0 0 0-.86-.4l-.44.36a.55.55 0 1 0 .76.8zm-1.44.88c-.24-.12-.56 0-.72.24l-.24.52a.54.54 0 0 0 .5.74c.23 0 .42-.14.5-.34l.2-.44c.16-.28 0-.6-.24-.72zm.96-5.6c.12 0 .2 0 .28-.08l.44-.24a.54.54 0 1 0-.48-.96l-.48.28a.52.52 0 0 0 .2 1h.04zm5.08 26v1.08a.52.52 0 0 0 1.04 0v-1.08a.52.52 0 0 0-1.04 0zM31.2 9.32c.28-.12.4-.4.32-.72-.09-.22-.17-.4-.26-.56l.02.04a.54.54 0 1 0-.96.48l.2.44a.52.52 0 0 0 .68.32zm.8 1.6c0-.32-.28-.56-.56-.52-.28 0-.52.24-.52.56v.24a.54.54 0 0 0 1.08 0v-.28zM29.84 1.2l-.48-.24c-.28-.12-.6 0-.72.24-.12.28 0 .6.24.72l.44.24a.52.52 0 0 0 .72-.2c.16-.24.08-.6-.2-.72zm-5.32 28.12v-1.08a.52.52 0 0 0-1.04 0v1.08a.52.52 0 0 0 1.04 0zm-5.32 0v-1.08a.54.54 0 0 0-1.08 0v1.08a.54.54 0 0 0 1.08 0zM29.44 5.8a.52.52 0 0 0-.68.8l.4.4a.52.52 0 0 0 .72-.04c.2-.2.2-.56 0-.76l-.44-.4zM3.24 12c-.28 0-.56.2-.56.48v.32a.52.52 0 0 0 1.04 0v-.24a.48.48 0 0 0-.48-.56zm7.32-.24a.54.54 0 0 0-.44.6v.52a.54.54 0 0 0 1.08 0v-.64c-.08-.28-.32-.52-.64-.48zM10 1.6l.4.2.24.04a.52.52 0 0 0 .24-1L10.36.6c-.28-.08-.6.04-.72.32-.08.28.04.6.32.68zm-.24 4.44.4.28.32.08a.52.52 0 0 0 .28-1l-.48-.28a.53.53 0 0 0-.52.92zM.52 3.72c.16 0 .32-.04.4-.16l.16-.2c.09-.1.14-.22.14-.36a.52.52 0 0 0-.9-.36l-.2.16a.52.52 0 0 0 .38.88h.02zm8.4 6.56.36.32a.52.52 0 0 0 .76.04c.2-.2.24-.52 0-.76a1.38 1.38 0 0 0-.44-.4.52.52 0 0 0-.68.8zm3-2.2a.53.53 0 1 0 .88-.6L12.48 7a.55.55 0 1 0-.88.64l.32.4zm.24-5.28.4.36a.52.52 0 0 0 .72-.04c.2-.24.16-.56-.04-.8L12.8 2a.52.52 0 1 0-.64.8zM4.88 1.28H5l.52-.12a.53.53 0 1 0-.2-1.04c-.19 0-.37.04-.53.12h.01a.52.52 0 0 0 .04 1.04h.04zm2.64-.2c.21 0 .4.02.6.04h-.04.04A.52.52 0 0 0 8.16.08L7.6 0c-.28 0-.56.2-.56.52-.04.28.2.52.48.56zm5.52 8.16c-.28.08-.44.4-.4.64l.16.52a.52.52 0 1 0 1.04-.12l-.12-.6c-.04-.28-.32-.44-.64-.4zM4.8 5.68h.16l.48-.16a.54.54 0 1 0-.28-1.04l-.56.2a.52.52 0 0 0 .16 1zm2.6-.32c.2 0 .4.02.59.04h-.03.06a.52.52 0 0 0 .06-1.04l-.6-.08h-.04a.54.54 0 0 0-.04 1.08zM6.56 9.6h.52c.32 0 .56-.2.56-.52 0-.28-.2-.52-.48-.56h-.68a.54.54 0 0 0 .04 1.08h.04z"/>
    </symbol>
    <symbol id="icon-mouse" viewBox="0 0 32 32">
      <path d="M15.97 0a9.42 9.42 0 0 0-9.4 9.41V22.6a9.42 9.42 0 0 0 18.82 0V9.4A9.42 9.42 0 0 0 15.97 0zm7.5 22.59a7.5 7.5 0 0 1-14.99 0V9.4a7.5 7.5 0 0 1 14.99 0v13.2z"/>
      <path d="M15.97 6.37a.96.96 0 0 0-.96.96v4.41a.96.96 0 0 0 1.93 0V7.33a.96.96 0 0 0-.96-.96z"/>
    </symbol>
    <symbol id="icon-phone" viewBox="0 0 32 32">
      <path d="M27.98 23.05a2.15 2.15 0 0 0-1.06-1.6L20 17.48a2.17 2.17 0 0 0-2.61.34l-1.36 1.36a1 1 0 0 1-1.34.08 39.26 39.26 0 0 1-5.96-5.96 1 1 0 0 1 .08-1.34l1.36-1.36c.69-.69.83-1.76.34-2.6L6.55 1.07C6.2.5 5.63.11 4.95.02S3.62.15 3.14.63L1.09 2.68c-1.43 1.43-1.45 4.05-.07 7.37 1.34 3.2 3.83 6.71 7.02 9.9s6.71 5.69 9.9 7.02c1.64.69 3.1 1.03 4.34 1.03 1.28 0 2.3-.37 3.03-1.1l2.05-2.04c.48-.48.7-1.14.62-1.82zm-8.42-4.79 6.9 3.98a1.25 1.25 0 0 1 .39 1.84l-9.18-5.24.37-.38c.4-.4 1.03-.48 1.52-.2zM4.84.92c.39.05.72.27.92.62l3.98 6.9c.28.5.2 1.12-.2 1.52l-.34.34-5.27-9.15a1.24 1.24 0 0 1 .9-.23zm19.84 25.35c-1.14 1.14-3.47 1.09-6.38-.13-3.1-1.3-6.5-3.72-9.61-6.83s-5.54-6.52-6.83-9.6C.64 6.79.6 4.46 1.73 3.33L3.25 1.8l5.28 9.17-.35.35a1.9 1.9 0 0 0-.14 2.54 40.15 40.15 0 0 0 6.1 6.1 1.9 1.9 0 0 0 2.54-.14l.32-.32 9.2 5.25-1.53 1.52z"/>
    </symbol>
    <symbol id="icon-placeholder" viewBox="0 0 32 32">
      <path d="M16.56 7.47a3.58 3.58 0 1 0 .01 7.17 3.58 3.58 0 0 0 0-7.17zm0 6.14a2.56 2.56 0 1 1 0-5.12 2.56 2.56 0 0 1 0 5.12z"/>
      <path d="M23.4 4.2c-1.84-1.85-4.3-2.87-6.93-2.87S11.4 2.35 9.54 4.21c-3.43 3.42-3.86 9.87-.92 13.78l7.85 11.34L24.32 18c2.94-3.92 2.51-10.37-.91-13.8zm.09 13.2-7.02 10.14-7.02-10.15c-2.66-3.54-2.28-9.37.81-12.46 1.66-1.66 3.87-2.57 6.21-2.57s4.55.91 6.21 2.57c3.1 3.1 3.48 8.92.8 12.48z"/>
    </symbol>
  </defs>
</svg>
