<svg xmlns="http://www.w3.org/2000/svg" fill="none" viewBox="0 0 80 80">
  <path fill="#D4C17F" d="M73.33 45.33c.74 0 1.34-.6 1.34-1.33v-5.33c0-.74-.6-1.34-1.34-1.34h-6.66V36A1.33 1.33 0 1 0 64 36v1.33H26.67V36A1.33 1.33 0 0 0 24 36v1.33h-6.67c-.73 0-1.33.6-1.33 1.34V44c0 .74.6 1.33 1.33 1.33h56Zm-54.66-2.66V40H72v2.67H18.67ZM48 29.33a5.1 5.1 0 0 0-3.7 1.83c-.46.57-.38 1.4.19 1.86.56.47 1.4.39 1.87-.17 0 0 .73-.85 1.64-.85.91 0 1.63.84 1.63.84a1.33 1.33 0 0 0 2.07-1.68 5.1 5.1 0 0 0-3.7-1.83Z"/>
  <path fill="#D4C17F" d="M73.33 56c.74 0 1.34-.6 1.34-1.33v-5.34c0-.73-.6-1.33-1.34-1.33h-6.66v-1.33a1.33 1.33 0 1 0-2.67 0V48H26.67v-1.33a1.33 1.33 0 0 0-2.67 0V48h-6.67c-.73 0-1.33.6-1.33 1.33v5.34c0 .73.6 1.33 1.33 1.33h56Zm-54.66-2.67v-2.66H72v2.66H18.67Zm36.3-27.16a1.33 1.33 0 1 0 2.06-1.68 5.1 5.1 0 0 0-3.7-1.82 5.1 5.1 0 0 0-3.7 1.82c-.46.57-.37 1.4.19 1.86.56.47 1.4.4 1.87-.17.01 0 .73-.85 1.64-.85.91 0 1.64.84 1.64.84Zm-53.63-8.7c.07.68.64 1.2 1.33 1.2h8c.68 0 1.26-.52 1.32-1.2l1.34-13.34A1.33 1.33 0 0 0 12 2.67H8V1.33a1.33 1.33 0 0 0-2.67 0v1.34h-4A1.33 1.33 0 0 0 .01 4.13l1.33 13.34Zm9.19-12.14L9.46 16H3.87L2.81 5.33h7.72Z"/>
  <path fill="#D4C17F" d="M37.33 30.67c0 1.49.61 2.87 1.72 3.9a1.33 1.33 0 0 0 1.88-.07c.5-.54.47-1.39-.07-1.89a2.63 2.63 0 0 1 .9-4.43 1.33 1.33 0 0 0 .44-2.23 2.63 2.63 0 0 1-.87-1.95c0-1.39 1.1-2.55 2.49-2.64a1.33 1.33 0 0 0 .9-2.23 2.65 2.65 0 0 1-.72-1.8c0-1.38 1.1-2.54 2.49-2.64a1.33 1.33 0 0 0 .89-2.23 2.66 2.66 0 0 1-.71-1.8c0-1.19.8-2.24 1.97-2.55a1.33 1.33 0 0 0 .89-1.78 2.67 2.67 0 1 1 4.94 0 1.33 1.33 0 0 0 .89 1.78 2.66 2.66 0 0 1 1.97 2.56c0 .65-.25 1.29-.7 1.79a1.33 1.33 0 0 0 .88 2.23c1.4.1 2.49 1.26 2.49 2.64 0 .66-.25 1.3-.71 1.8a1.33 1.33 0 0 0 .9 2.23A2.66 2.66 0 0 1 62.67 24c0 .74-.3 1.43-.87 1.95a1.34 1.34 0 0 0 .45 2.23A2.67 2.67 0 0 1 64 30.67a1.33 1.33 0 1 0 2.67 0c0-1.63-.76-3.14-1.98-4.13a5.33 5.33 0 0 0-2.37-7.32 5.33 5.33 0 0 0-2.67-6.67 5.33 5.33 0 0 0-2.37-6.51 5.34 5.34 0 1 0-10.57 0 5.33 5.33 0 0 0-2.36 6.5 5.33 5.33 0 0 0-2.67 6.68 5.33 5.33 0 0 0-2.37 7.32 5.33 5.33 0 0 0-1.98 4.13Z"/>
  <path fill="#D4C17F" d="M50.16 18.56c.68.28 1.46-.04 1.74-.72l.1-.2.1.2a1.34 1.34 0 0 0 2.47-1c-.15-.37-.96-2.17-2.57-2.17-1.6 0-2.42 1.8-2.57 2.16-.28.68.05 1.45.73 1.73Zm28.51 58.77H57.33a1.33 1.33 0 1 0 0 2.67h21.34a1.33 1.33 0 1 0 0-2.67Zm0-18.66h-12v-1.34a1.33 1.33 0 1 0-2.67 0v1.34H26.67v-1.34a1.33 1.33 0 0 0-2.67 0v1.34H12c-.74 0-1.33.6-1.33 1.33v5.33c0 .74.6 1.34 1.33 1.34h4v6.66a1.33 1.33 0 0 0 2.67 0v-6.66H72v6.66a1.33 1.33 0 1 0 2.67 0v-6.66h4c.73 0 1.33-.6 1.33-1.34V60c0-.74-.6-1.33-1.33-1.33ZM77.33 64h-64v-2.67h64V64Z"/>
  <path fill="#D4C17F" d="M20 77.33H8V22.67a1.33 1.33 0 0 0-2.67 0v54.66h-4a1.33 1.33 0 0 0 0 2.67H20a1.33 1.33 0 0 0 0-2.67Zm32 0h-2.67a1.33 1.33 0 1 0 0 2.67H52a1.33 1.33 0 1 0 0-2.67Zm-10.67 0H28A1.33 1.33 0 0 0 28 80h13.33a1.33 1.33 0 1 0 0-2.67Z"/>
</svg>