<svg xmlns="http://www.w3.org/2000/svg" fill="none" viewBox="0 0 80 80">
  <path fill="#D4C17F" d="M20 68H1.3a1.3 1.3 0 1 0 0 2.7H20a1.3 1.3 0 1 0 0-2.7Zm-4-2.7a16 16 0 0 0 11-27.6c-.5-.5-1.3-.4-1.8 0-.6.6-.5 1.5 0 2A13.3 13.3 0 1 1 16 36a1.3 1.3 0 1 0 0-2.7 16 16 0 0 0 0 32Z"/>
  <path fill="#D4C17F" d="M22.7 28h.6l-7.7 18.7a2.7 2.7 0 1 0 2.5 1l7.5-18.3 8.5 12.3a1.3 1.3 0 1 0 2.2-1.5L27.9 28h2.8a4 4 0 0 0 0-8h-8c-.8 0-1.4.6-1.4 1.3v5.4c0 .7.6 1.3 1.4 1.3Zm1.3-5.3h6.7a1.3 1.3 0 0 1 0 2.6H24v-2.6Zm38.7 12c0 .7.6 1.3 1.3 1.3a13.3 13.3 0 1 1-8.5 3 1.3 1.3 0 0 0-1.7-2A16 16 0 1 0 64 33.3c-.7 0-1.3.6-1.3 1.4ZM41.3 68H28a1.3 1.3 0 1 0 0 2.7h13.3a1.3 1.3 0 1 0 0-2.7Z"/>
  <path fill="#D4C17F" d="M41.3 42.9v-4.2a1.3 1.3 0 1 0 0-2.7h-2.6a1.3 1.3 0 1 0 0 2.7v4.2a5.3 5.3 0 0 0 0 10.2v4.2a1.3 1.3 0 1 0 0 2.7h2.6a1.3 1.3 0 1 0 0-2.7v-4.2a5.3 5.3 0 0 0 0-10.2ZM40 50.7a2.7 2.7 0 1 1 0-5.4 2.7 2.7 0 0 1 0 5.4Zm22-3a2.6 2.6 0 0 0 2 4.3c1.5 0 2.7-1.2 2.7-2.7 0-1.3-1-2.4-2.3-2.6l-6-16H68c1.6 0 2.6-1.3 2.7-2.4l1.4-6.7a1.3 1.3 0 0 0-1.3-1.6h-12a1.3 1.3 0 1 0 0 2.7H69l-1 5v.3H57.3l-4.2-11.1-2.6-6.7c-.3-.7-1-1-1.8-.8-.6.3-1 1-.7 1.8l2.4 6-5 8.8a1.3 1.3 0 1 0 2.3 1.3l4-6.8L55 29 44.8 40.4a1.3 1.3 0 1 0 2 1.8L56 31.8l6 15.9ZM78.7 68H57.3a1.3 1.3 0 1 0 0 2.7h21.4a1.3 1.3 0 1 0 0-2.7ZM52 68h-2.7a1.3 1.3 0 1 0 0 2.7H52a1.3 1.3 0 1 0 0-2.7Z"/>
</svg>