<svg xmlns="http://www.w3.org/2000/svg" fill="none" viewBox="0 0 80 80">
  <path fill="#D4C17F" d="M57.3 74.7H20c-.7 0-1.3.6-1.3 1.3v2.7a1.3 1.3 0 0 0 2.6 0v-1.4h36a1.3 1.3 0 0 0 0-2.6Zm-28-41.4c0 .8.6 1.4 1.4 1.4H36c.7 0 1.3-.6 1.3-1.4v-8c0-.7-.6-1.3-1.3-1.3h-5.3c-.8 0-1.4.6-1.4 1.3v8Zm2.7-6.6h2.7V32H32v-5.3ZM17.3 16h-16c-.7 0-1.3.6-1.3 1.3V44a1.3 1.3 0 0 0 2.7 0V18.7h14.6a1.3 1.3 0 0 0 0-2.7ZM64 65.3c0 .8.6 1.4 1.3 1.4h5.4c.7 0 1.3-.6 1.3-1.4v-8c0-.7-.6-1.3-1.3-1.3h-5.4c-.7 0-1.3.6-1.3 1.3v8Zm2.7-6.6h2.6V64h-2.6v-5.3ZM6.7 48C0 48 0 65.2 0 65.3c0 3.3 2.3 6 5.3 6.6v6.8a1.3 1.3 0 0 0 2.7 0v-6.8c3-.7 5.3-3.3 5.3-6.6 0-.1 0-17.3-6.6-17.3Zm0 21.3a4 4 0 0 1-4-4c0-6.6 1.8-14.6 4-14.6s4 8 4 14.6a4 4 0 0 1-4 4Zm8-29.3H9.3c-.7 0-1.3.6-1.3 1.3V44a1.3 1.3 0 0 0 2.7 0v-1.3h2.6v6.6a1.3 1.3 0 0 0 2.7 0v-8c0-.7-.6-1.3-1.3-1.3Zm50.6-5.3h5.4c.7 0 1.3-.6 1.3-1.4v-8c0-.7-.6-1.3-1.3-1.3h-5.4c-.7 0-1.3.6-1.3 1.3v8c0 .8.6 1.4 1.3 1.4Zm1.4-8h2.6V32h-2.6v-5.3Z"/>
  <path fill="#D4C17F" d="M14.7 24H9.3c-.7 0-1.3.6-1.3 1.3v8c0 .8.6 1.4 1.3 1.4h5.4c.7 0 1.3-.6 1.3-1.4v-8c0-.7-.6-1.3-1.3-1.3Zm-1.4 8h-2.6v-5.3h2.6V32Zm29.4 1.3c0 .8.6 1.4 1.3 1.4h5.3c.8 0 1.4-.6 1.4-1.4v-8c0-.7-.6-1.3-1.4-1.3H44c-.7 0-1.3.6-1.3 1.3v8Zm2.6-6.6H48V32h-2.7v-5.3ZM78.7 16h-16a1.3 1.3 0 0 0 0 2.7h14.6v53.5a4 4 0 0 0-2-.1 5.3 5.3 0 0 0-4.6-2.8c-2 0-3.8 1.1-4.7 2.8a4 4 0 1 0-.7 8H76a4 4 0 0 0 4-4.1V17.3c0-.7-.6-1.3-1.3-1.3ZM76 77.3H65.3a1.3 1.3 0 0 1 0-2.6c.3 0 .5 0 .8.2a1.3 1.3 0 0 0 2-.8 2.7 2.7 0 0 1 5.2 0 1.3 1.3 0 0 0 2 .8c.8-.6 2 .1 2 1.1 0 .7-.6 1.3-1.3 1.3ZM44 18.7h5.3c.8 0 1.4-.6 1.4-1.4v-8c0-.7-.6-1.3-1.4-1.3H44c-.7 0-1.3.6-1.3 1.3v8c0 .8.6 1.4 1.3 1.4Zm1.3-8H48V16h-2.7v-5.3Zm-2.6 38.6c0 .8.6 1.4 1.3 1.4h5.3c.8 0 1.4-.6 1.4-1.4v-8c0-.7-.6-1.3-1.4-1.3H44c-.7 0-1.3.6-1.3 1.3v8Zm2.6-6.6H48V48h-2.7v-5.3Zm-14.6-24H36c.7 0 1.3-.6 1.3-1.4v-8c0-.7-.6-1.3-1.3-1.3h-5.3c-.8 0-1.4.6-1.4 1.3v8c0 .8.6 1.4 1.4 1.4Zm1.3-8h2.7V16H32v-5.3Zm7 53.7c-.2.2-.3.6-.3 1 0 .3.1.6.4.9.2.2.6.4.9.4.3 0 .7-.2 1-.4.2-.3.3-.6.3-1 0-.3-.1-.7-.4-1-.5-.4-1.3-.4-1.8 0Zm-9.7-15.1c0 .8.6 1.4 1.4 1.4H36c.7 0 1.3-.6 1.3-1.4v-8c0-.7-.6-1.3-1.3-1.3h-5.3c-.8 0-1.4.6-1.4 1.3v8Zm2.7-6.6h2.7V48H32v-5.3Z"/>
  <path fill="#D4C17F" d="M26.7 57.3c0 .8.6 1.4 1.3 1.4h4v12a1.3 1.3 0 0 0 2.7 0v-12h10.6v12a1.3 1.3 0 0 0 2.7 0v-12h4a1.3 1.3 0 0 0 0-2.7H28c-.7 0-1.3.6-1.3 1.3Zm37.3-8c0 .8.6 1.4 1.3 1.4h5.4c.7 0 1.3-.6 1.3-1.4v-8c0-.7-.6-1.3-1.3-1.3h-5.4c-.7 0-1.3.6-1.3 1.3v8Zm2.7-6.6h2.6V48h-2.6v-5.3Z"/>
  <path fill="#D4C17F" d="M57.3 0H22.7c-.8 0-1.4.6-1.4 1.3v69.4a1.3 1.3 0 0 0 2.7 0v-68h32v68a1.3 1.3 0 0 0 2.7 0V1.3C58.7.6 58 0 57.3 0Z"/>
</svg>