<svg xmlns="http://www.w3.org/2000/svg" fill="none" viewBox="0 0 80 80">
  <g fill="#D4C17F" clip-path="url(#a)">
    <path d="m53.4 4.6.5-.1 1.2-.5a1.3 1.3 0 1 0-1-2.5l-1.3.6a1.3 1.3 0 0 0 .6 2.5Zm-.1 28.9c.8 0 1.4-.6 1.4-1.3V31a1.3 1.3 0 0 0-2.6-.4L52 32v.2c0 .7.6 1.3 1.3 1.3Zm-6.6.4c.7 0 1.3-.6 1.3-1.4v-1.3a1.3 1.3 0 1 0-2.7 0v1.3c0 .8.6 1.4 1.4 1.4Zm7.6-21.1-1.2.7a1.3 1.3 0 0 0 1.5 2.3l1-.7a1.3 1.3 0 0 0-1.3-2.3Zm-18.9-.2a1.3 1.3 0 1 0 2.3-1.4l-.8-1.2a1.3 1.3 0 1 0-2.2 1.6l.7 1Zm24.4-9.8h.2l1.2-.1A1.3 1.3 0 0 0 61 0l-1.4.2a1.3 1.3 0 0 0 .2 2.6Zm-5 21.9a1.3 1.3 0 0 0 2 1.8l1-.8a1.3 1.3 0 1 0-1.8-2c-.4.2-.8.6-1.2 1ZM42.8 13c.2.2.4.3.7.3.4 0 .8-.3 1-.7l.8-1A1.3 1.3 0 0 0 43 10l-.8 1.2c-.4.6-.2 1.5.5 1.9Zm10.5 27c.8 0 1.4-.6 1.4-1.4V38a1.3 1.3 0 1 0-2.7 0v.6c0 .8.6 1.4 1.3 1.4Zm-6.7-13 .2.1c.7 0 1.2-.5 1.3-1.2l.3-1.2a1.3 1.3 0 1 0-2.6-.6l-.3 1.5c-.1.7.4 1.4 1.1 1.5Zm-9-9.8.3 1.2a1.3 1.3 0 0 0 1.7 1l.4-.3a1.3 1.3 0 0 0 .8.3c.6 0 1.1-.4 1.3-1l.3-1.2c.3-.7-.1-1.5-.8-1.7-.6-.2-1.3 0-1.6.7a1.3 1.3 0 0 0-2.4 1Zm10.2-9 .9-.3 1-.8A1.3 1.3 0 0 0 48 5l-1 .9a1.3 1.3 0 0 0 .8 2.3Zm1 9.3-.8 1.2a1.3 1.3 0 0 0 2.2 1.5l.8-1a1.3 1.3 0 0 0-2.2-1.7Zm12.5-6.8c-.5 0-1 0-1.5.2a1.3 1.3 0 0 0 .5 2.6l1.2-.1a1.3 1.3 0 0 0-.2-2.7ZM66.2 3a22.4 22.4 0 0 1 1.6.2A1.3 1.3 0 0 0 68 .6c-.4-.2-.9-.2-1.3-.3a1.3 1.3 0 1 0-.5 2.6Zm2.3 8.7-1.4-.5c-.7-.2-1.4.3-1.6 1-.2.7.2 1.4 1 1.6l1.1.4a1.3 1.3 0 1 0 1-2.5Zm-6.4 9.6c-.7 0-1.3.7-1.2 1.4 0 .8.6 1.3 1.4 1.3a8.3 8.3 0 0 1 1.3 0 1.3 1.3 0 0 0 .2-2.6H62ZM77.7 8.9a1.3 1.3 0 1 0 2-1.8l-.5-.5a1.3 1.3 0 0 0-2 1.8l.5.5ZM57.3 50.6h-16a1.3 1.3 0 1 0 0 2.7h16c3.8 0 6.7-3 6.7-6.7V44c0-.8-.6-1.4-1.3-1.4H17.3c-.7 0-1.3.6-1.3 1.4v2.6c0 3.8 3 6.7 6.7 6.7h12V60a1.3 1.3 0 1 0 2.6 0v-8c0-.8-.6-1.4-1.3-1.4H22.7a4 4 0 0 1-4-4v-1.3h42.6v1.3a4 4 0 0 1-4 4Zm13.3-19.2v.6a1.3 1.3 0 1 0 2.7 0v-.8c0-.7-.7-1.3-1.4-1.2-.8 0-1.3.7-1.3 1.4ZM67.8 24c-.5.6-.4 1.5.1 2l1 .8a1.3 1.3 0 0 0 2-1.7L69.7 24c-.5-.5-1.4-.5-1.9 0Zm-26.5 6.6a1.3 1.3 0 1 0-2.6 0V32a1.3 1.3 0 1 0 2.6 0v-1.4Zm-1.3 6c-.7 0-1.3.6-1.3 1.4v.6a1.3 1.3 0 1 0 2.6 0V38c0-.8-.6-1.4-1.3-1.4Zm5.3 2a1.3 1.3 0 1 0 2.7 0V38a1.3 1.3 0 1 0-2.7 0v.6Zm-4-14.6v-.7c0-.5-.3-1-.8-1.2h-.1L40 22h-.5c-.5.3-.9.8-.8 1.3v1.3a1.3 1.3 0 1 0 2.6 0V24ZM32 38.6a1.3 1.3 0 1 0 2.7 0V38a1.3 1.3 0 1 0-2.7 0v.6Zm1.3-4.7c.8 0 1.4-.6 1.4-1.4v-1.3a1.3 1.3 0 1 0-2.7 0v1.3c0 .8.6 1.4 1.3 1.4ZM28 38.6V38a1.3 1.3 0 1 0-2.7 0v.6a1.3 1.3 0 1 0 2.7 0ZM9.3 27a1.3 1.3 0 0 0 1.9-.2c.3-.3.5-.6.9-.8a1.3 1.3 0 0 0-1.8-2L9 25c-.4.6-.4 1.4.2 2Z"/>
    <path d="M73.3 64h-28v-6.7a1.3 1.3 0 1 0-2.6 0v8c0 .7.6 1.3 1.3 1.3h28v6.7a4 4 0 0 1-4 4H12a4 4 0 0 1-4-4v-6.7h30.8a1.3 1.3 0 1 0 0-2.6H6.7c-.8 0-1.4.6-1.4 1.3v8c0 3.7 3 6.7 6.7 6.7h56c3.7 0 6.7-3 6.7-6.7v-8c0-.7-.6-1.3-1.4-1.3Z"/>
    <path d="M32 70.6v2.7a1.3 1.3 0 1 0 2.7 0v-2.7a1.3 1.3 0 1 0-2.7 0ZM1.4 26c-.8 0-1.4.5-1.4 1.3v.7a1.3 1.3 0 1 0 2.7 0v-.6c0-.8-.6-1.4-1.3-1.4Zm5.8-8.6.9-.8a1.3 1.3 0 1 0-1.7-2l-1.1.9a1.3 1.3 0 1 0 1.9 2Zm-3.6 2.2c-.6-.3-1.4 0-1.8.6l-.6 1.3a1.3 1.3 0 0 0 2.5 1l.5-1.1c.4-.7 0-1.5-.6-1.8ZM6 5.6c.3 0 .5 0 .7-.2l1.1-.6a1.3 1.3 0 0 0-1.2-2.4l-1.2.7A1.3 1.3 0 0 0 6 5.6Zm12.7 65v2.7a1.3 1.3 0 1 0 2.6 0v-2.7a1.3 1.3 0 1 0-2.6 0ZM78 23.3c.7-.3 1-1 .8-1.8a17 17 0 0 0-.6-1.3 1.3 1.3 0 0 0-2.4 1.2l.5 1.1a1.3 1.3 0 0 0 1.7.8Zm2 4c0-.8-.7-1.4-1.4-1.3-.7 0-1.3.6-1.3 1.4v.6a1.3 1.3 0 1 0 2.7 0v-.7ZM74.6 3l-1.2-.6c-.7-.3-1.5 0-1.8.6-.3.7 0 1.5.6 1.8l1.1.6a1.3 1.3 0 0 0 1.8-.5c.4-.6.2-1.5-.5-1.8ZM61.3 73.3v-2.7a1.3 1.3 0 1 0-2.6 0v2.7a1.3 1.3 0 1 0 2.6 0Zm-13.3 0v-2.7a1.3 1.3 0 1 0-2.7 0v2.7a1.3 1.3 0 1 0 2.7 0Zm25.6-58.8a1.3 1.3 0 1 0-1.7 2l1 1a1.3 1.3 0 0 0 1.8-.1c.5-.5.5-1.4 0-1.9l-1.1-1ZM8.1 30c-.7 0-1.4.5-1.4 1.2v.8a1.3 1.3 0 1 0 2.6 0v-.6c.1-.7-.4-1.4-1.2-1.4Zm18.3-.6c-.7.1-1.2.8-1.1 1.5v1.3a1.3 1.3 0 1 0 2.7 0v-1.6c-.2-.7-.8-1.3-1.6-1.2ZM25 4l1 .5.6.1a1.3 1.3 0 0 0 .6-2.5l-1.3-.6c-.7-.2-1.5.1-1.8.8-.2.7.1 1.5.8 1.7Zm-.6 11.1 1 .7.8.2a1.3 1.3 0 0 0 .7-2.5l-1.2-.7a1.3 1.3 0 0 0-1.3 2.3ZM1.3 9.3c.4 0 .8-.1 1-.4l.4-.5A1.3 1.3 0 0 0 .8 6.6L.3 7a1.3 1.3 0 0 0 1 2.2Zm21 16.4.9.8a1.3 1.3 0 0 0 1.9.1c.5-.5.6-1.3 0-1.9-.3-.4-.7-.8-1.1-1a1.3 1.3 0 1 0-1.7 2Zm7.5-5.5a1.3 1.3 0 1 0 2.2-1.5l-.8-1.2a1.3 1.3 0 0 0-2.2 1.6l.8 1ZM30.4 7l1 .9a1.3 1.3 0 0 0 1.8-.1c.5-.6.4-1.4-.1-2L32 5a1.3 1.3 0 1 0-1.6 2ZM12.2 3.2h.3l1.3-.3a1.3 1.3 0 1 0-.5-2.6 3 3 0 0 0-1.3.3 1.3 1.3 0 0 0 .2 2.6Zm6.6-.5a22.4 22.4 0 0 1 1.4.1 1.3 1.3 0 0 0 .2-2.6L19 0c-.7 0-1.4.5-1.4 1.3-.1.7.5 1.3 1.2 1.4Zm13.8 20.4c-.7.2-1.1 1-1 1.6L32 26a1.3 1.3 0 0 0 2.6-.3l-.3-1.5c-.1-.7-.8-1.1-1.6-1ZM12 14.2h.4l1.2-.4a1.3 1.3 0 0 0-.7-2.6l-1.4.5a1.3 1.3 0 0 0 .4 2.5Zm6.5-.8a14.5 14.5 0 0 1 1.4.1 1.3 1.3 0 0 0 .3-2.6l-1.5-.2a1.3 1.3 0 1 0-.2 2.7ZM16.4 24h1.3c.8 0 1.4-.5 1.4-1.3 0-.7-.5-1.3-1.2-1.4h-1.7a1.3 1.3 0 0 0 .2 2.7Z"/>
  </g>
  <defs>
    <clipPath id="a">
      <path fill="#fff" d="M0 0h80v80H0z"/>
    </clipPath>
  </defs>
</svg>