<svg xmlns="http://www.w3.org/2000/svg" fill="none" viewBox="0 0 21 21">
  <g clip-path="url(#a)">
    <path fill="#fff" d="M20.99 17.28c-.07-.5-.36-.94-.8-1.19L15 13.11a1.63 1.63 0 0 0-1.96.26l-1.02 1.02c-.27.27-.7.3-1 .05a29.49 29.49 0 0 1-4.47-4.47.75.75 0 0 1 .05-1l1.02-1.02c.52-.52.63-1.32.26-1.96L4.91.81a1.61 1.61 0 0 0-1.2-.8c-.5-.06-1 .1-1.35.47L.82 2C-.25 3.1-.28 5.05.77 7.54c1 2.4 2.87 5.03 5.26 7.43a24.46 24.46 0 0 0 7.43 5.26c1.23.51 2.32.77 3.25.77a3.1 3.1 0 0 0 2.28-.82l1.54-1.54c.35-.36.52-.85.46-1.36Zm-6.32-3.58 5.18 2.98a.94.94 0 0 1 .29 1.38l-6.89-3.93.28-.28c.3-.3.77-.37 1.14-.15ZM3.63.69c.29.04.54.2.69.46L7.3 6.33c.22.37.15.84-.15 1.14l-.25.26L2.95.86A.93.93 0 0 1 3.63.7ZM18.5 19.7c-.86.85-2.6.82-4.79-.1a23.72 23.72 0 0 1-7.2-5.11A23.72 23.72 0 0 1 1.4 7.28C.48 5.09.45 3.35 1.3 2.49l1.14-1.14L6.4 8.23l-.27.26a1.43 1.43 0 0 0-.1 1.9 30.17 30.17 0 0 0 4.57 4.58c.57.46 1.4.42 1.91-.1l.24-.24 6.9 3.93-1.14 1.14Z"/>
  </g>
  <defs>
    <clipPath id="a">
      <path fill="#fff" d="M0 0h21v21H0z"/>
    </clipPath>
  </defs>
</svg>
