<svg xmlns="http://www.w3.org/2000/svg" fill="none" viewBox="0 0 36 20">
  <path fill="#fff" d="M34.87 18.06a18.17 18.17 0 0 0-3.6-4.26l-.04-.04-.02-.01-.02-.02h-.02a21.08 21.08 0 0 1-1.48-1.5c-.37-.49-.46-.98-.25-1.48.14-.38.7-1.17 1.64-2.39l1.19-1.55c2.1-2.8 3.01-4.59 2.73-5.37l-.1-.18c-.08-.1-.27-.2-.57-.3-.3-.09-.7-.1-1.17-.04l-5.25.03a.68.68 0 0 0-.37.01l-.24.06-.09.04-.07.06a.81.81 0 0 0-.2.19c-.07.09-.13.2-.18.32a29.8 29.8 0 0 1-3.2 6.07 6.62 6.62 0 0 1-1.64 1.85c-.2.16-.37.22-.47.2l-.32-.07c-.17-.11-.3-.26-.4-.45a2 2 0 0 1-.22-.71 7.87 7.87 0 0 1-.05-1.62l.02-.76a45.54 45.54 0 0 1 .07-2.8l.02-1A2.84 2.84 0 0 0 20.3.93a.98.98 0 0 0-.37-.44 2.1 2.1 0 0 0-.61-.25C18.68.09 17.86.01 16.86 0c-2.26-.02-3.71.12-4.36.44-.25.13-.48.32-.7.55-.21.27-.24.41-.08.44.73.1 1.24.37 1.55.78l.1.22c.1.16.18.44.26.84a14.21 14.21 0 0 1 0 5.1 2.96 2.96 0 0 1-.47 1.25.31.31 0 0 1-.1.1c-.15.05-.31.08-.48.08-.18 0-.38-.08-.63-.25-.24-.17-.5-.4-.75-.7a9.4 9.4 0 0 1-.89-1.26 18.9 18.9 0 0 1-1.02-1.9l-.3-.52a45.54 45.54 0 0 1-1.58-3.38 1.2 1.2 0 0 0-.44-.58l-.09-.06a1.94 1.94 0 0 0-.71-.27l-5 .03c-.51 0-.86.12-1.04.35l-.08.11a.59.59 0 0 0-.05.3c0 .13.04.3.11.49a60.23 60.23 0 0 0 4.62 8.81 45.5 45.5 0 0 0 3.74 4.97l.45.43a18.9 18.9 0 0 0 3.17 2.25 9.7 9.7 0 0 0 5.07 1.27h2.1c.42-.03.74-.16.96-.4l.08-.09a1.85 1.85 0 0 0 .2-.84 6 6 0 0 1 .11-1.41c.1-.42.2-.74.31-.95a2.33 2.33 0 0 1 .7-.8l.15-.07c.3-.1.64 0 1.03.29.4.28.77.64 1.12 1.06.35.42.76.89 1.25 1.41.49.52.91.91 1.28 1.17l.36.22c.24.14.56.28.95.4.39.12.73.15 1.02.09l4.67-.07c.47 0 .83-.08 1.08-.23.26-.15.4-.32.46-.5.05-.19.05-.4 0-.62a2.3 2.3 0 0 0-.12-.49Z"/>
</svg>
