<svg xmlns="http://www.w3.org/2000/svg" fill="none" viewBox="0 0 165 69">
  <path fill="#fff" d="M1.72 45V14.92h3.74v13.1h3.86v3.66H5.46V45H1.72Zm9.75-13.32v-3.65h3.83v-13.1h3.78V45H15.3V31.68h-3.83Zm10.96 6.96V28.03c0-1.35.6-2.67 1.8-3.96a7.43 7.43 0 0 1 5.59-2.32v3.48c-1.69 0-2.86.7-3.52 2.11-.2.43-.3.86-.3 1.29v9.45c0 1.06.48 1.96 1.46 2.7.68.52 1.47.78 2.36.78v3.48a7.18 7.18 0 0 1-6.32-3.3 5.68 5.68 0 0 1-1.07-3.1Zm9.24 6.4v-3.48c1.52 0 2.6-.69 3.26-2.06.23-.46.35-.9.35-1.33v-9.54c0-1.18-.5-2.1-1.5-2.8-.64-.4-1.35-.6-2.16-.6v-3.48a6.9 6.9 0 0 1 6.1 3.23 5.48 5.48 0 0 1 1.08 3.05v10.61c0 1.4-.6 2.76-1.8 4.08a7.08 7.08 0 0 1-5.33 2.32Zm10.4-6.23V21.8h3.65v16.58c0 1.03.51 1.9 1.55 2.58.68.43 1.44.65 2.27.65v3.6A7.28 7.28 0 0 1 43.18 42a5.64 5.64 0 0 1-1.11-3.18Zm9.36 6.4v-3.6c1.55 0 2.68-.62 3.4-1.85.26-.46.38-.92.38-1.38V21.8h3.66v17c0 1.35-.62 2.68-1.85 4a7.51 7.51 0 0 1-5.59 2.4Zm9.93-6.31 3.4-.65c0 1.3.67 2.31 2.01 3.05.66.32 1.3.5 1.9.52v3.4c-2.78 0-4.86-1-6.24-3.01a5.83 5.83 0 0 1-1.07-3.31Zm.21-10.57a6.2 6.2 0 0 1 3.57-5.8 7.4 7.4 0 0 1 3.44-.9v3.35c-1.32 0-2.34.54-3.05 1.63a3 3 0 0 0-.56 1.72c0 .91.71 1.66 2.15 2.23a48.1 48.1 0 0 0 6.31 1.8 5.79 5.79 0 0 1 4.17 2.89c.43.8.65 1.7.65 2.7 0 2.75-1.1 4.79-3.31 6.1a8.43 8.43 0 0 1-4.43 1.16v-3.39c1.32 0 2.42-.46 3.31-1.37.63-.66.95-1.44.95-2.33 0-1.14-1.14-2.06-3.4-2.74a59.2 59.2 0 0 0-2.75-.74 36.86 36.86 0 0 1-2.92-.77c-2.18-.86-3.5-2.16-3.95-3.9a7.5 7.5 0 0 1-.18-1.64Zm8.9-3.31v-3.4a7.4 7.4 0 0 1 5.97 2.75 5.82 5.82 0 0 1 1.42 3.7l-3.4.56c0-1.58-.85-2.68-2.57-3.31-.52-.2-1-.3-1.42-.3Zm10.31 13.62V27.98c.03-1.31.66-2.62 1.9-3.9a7.45 7.45 0 0 1 5.4-2.33v3.4a3.65 3.65 0 0 0-3.69 3.22v2.92h9.63v-2.92c0-1.29-.66-2.23-1.98-2.83a4.25 4.25 0 0 0-1.85-.43v-3.36c1.98 0 3.74.7 5.29 2.1a5.72 5.72 0 0 1 1.97 4.1v6.82H84.4v3.87c0 .8.46 1.55 1.38 2.23.74.52 1.53.78 2.36.78V45a7.1 7.1 0 0 1-6.15-3.18 5.52 5.52 0 0 1-1.2-3.18ZM90.2 45v-3.4c1.72 0 3-.74 3.87-2.23.17-.31.3-.61.39-.9l3.05 1.12a6.9 6.9 0 0 1-3.53 4.46 7.88 7.88 0 0 1-3.78.95Zm9.41-30.08h3.78l7.65 26.13-1.37 3.95h-1.34L99.6 14.92Zm10.49 15.94 5.32-15.94h3.78c-.25.83-1.33 4.16-3.22 9.97l-3.78 11.65h-.43l-1.67-5.68Zm11.17 5.76V22.48c0-1.51.64-3.06 1.93-4.64a8.27 8.27 0 0 1 6.53-3.13v3.74c-1.75 0-3.1.88-4.08 2.66-.4.77-.6 1.46-.6 2.06v13.45c0 1.8.89 3.2 2.66 4.21.75.43 1.4.65 1.98.65v3.73a8.36 8.36 0 0 1-4.9-1.76 8.2 8.2 0 0 1-3.52-6.83Zm10.78 8.6v-3.74c1 0 2.02-.45 3.05-1.34a4.7 4.7 0 0 0 1.68-3.52V23.17a4.8 4.8 0 0 0-1.38-3.22 4.67 4.67 0 0 0-3.35-1.5V14.7c2.9 0 5.22 1.24 6.96 3.74 1 1.43 1.5 2.77 1.5 4.03v14.14c0 3.18-1.41 5.62-4.25 7.3a8.48 8.48 0 0 1-4.2 1.3ZM144 45h3.74V14.92H144V45Zm5.88-13.45h4.65c3.75-.03 6.1-1.46 7.04-4.3.38-1.14.56-2.5.56-4.08 0-5.24-2.36-7.99-7.09-8.25h-5.16v3.61h4.04c2.9.06 4.36 1.6 4.39 4.64-.06 3.12-1.5 4.7-4.34 4.73h-4.09v3.65ZM.31 66l3.31-4.4-3.1-4.12h.98l2.83 3.8H5.5v-3.8h.82v3.8h1.16l2.84-3.8h.98l-3.12 4.13L11.5 66h-.98L7.5 62.04H6.32V66H5.5v-3.96H4.3L1.29 66H.31Zm14.07 0v-8.52h.83v7.37l5.28-7.37h.78V66h-.83v-7.24L15.22 66h-.84Zm16.56-7.78H27.9V66h-.84v-7.78h-3.03v-.74h6.9v.74ZM39.4 66v-7.78h-3.48l-.04 1.8a23.4 23.4 0 0 1-.26 2.93 6.3 6.3 0 0 1-.54 1.84c-.23.44-.51.75-.85.95-.33.18-.73.27-1.2.27v-.74c.31 0 .59-.08.83-.24.24-.16.44-.44.61-.84.17-.4.3-.95.4-1.66.1-.71.17-1.61.2-2.7l.07-2.35h5.1V66h-.84Zm7.83.06a3.65 3.65 0 0 1-2.89-1.33 4.69 4.69 0 0 1-1.1-2.99 4.41 4.41 0 0 1 2.42-3.96 3.54 3.54 0 0 1 1.59-.36c.6 0 1.14.12 1.63.37s.9.58 1.25 1a4.69 4.69 0 0 1 1.1 2.96 4.5 4.5 0 0 1-1.14 3.01c-.36.4-.78.72-1.27.95a3.7 3.7 0 0 1-1.59.35Zm-3.15-4.32a4.02 4.02 0 0 0 .87 2.48 2.88 2.88 0 0 0 2.28 1.08c.5 0 .93-.1 1.31-.3.4-.2.73-.48 1-.81a4 4 0 0 0 .62-3.78 3.6 3.6 0 0 0-1.65-1.93 2.8 2.8 0 0 0-1.28-.3 2.84 2.84 0 0 0-2.3 1.12 3.87 3.87 0 0 0-.85 2.44Zm16.58 2.06c0 .43-.1.8-.32 1.14A2.49 2.49 0 0 1 58.27 66h-4.02v-8.52h4.1c.4 0 .75.1 1.04.32.3.21.52.48.67.82a2.33 2.33 0 0 1-.08 2.2 2 2 0 0 1-.9.81c.49.15.87.41 1.15.8.29.4.43.85.43 1.37Zm-.84-.14a1.66 1.66 0 0 0-.72-1.4 1.26 1.26 0 0 0-.74-.22H55.1v3.23h3.18c.3 0 .55-.08.78-.23a1.69 1.69 0 0 0 .77-1.38Zm-4.73-5.45v3.15h2.93c.28 0 .53-.08.75-.22a1.67 1.67 0 0 0 .7-1.36 1.67 1.67 0 0 0-.67-1.35c-.2-.15-.44-.22-.7-.22h-3ZM63.74 66v-8.52h.83v7.37l5.28-7.37h.78V66h-.83v-7.24L64.58 66h-.84Zm10.56 0v-8.52h.83v7.37l5.28-7.37h.78V66h-.83v-7.24L75.14 66h-.84Zm3.46-9.24c-.4 0-.73-.06-1-.17a1.4 1.4 0 0 1-.6-.48c-.13-.2-.2-.43-.21-.67h.66c0 .2.09.4.25.56.17.17.47.26.9.26.41 0 .7-.08.87-.23a.82.82 0 0 0 .27-.59h.66c-.01.24-.08.46-.22.67-.13.2-.33.36-.6.48-.25.11-.58.17-.98.17ZM89.3 66v-8.52h.84v3.8h1.28l2.93-3.8h.97l-3.2 4.13 3.4 4.39H94.5l-3.05-3.96h-1.31V66h-.84Zm12 .06a3.65 3.65 0 0 1-2.88-1.33 4.69 4.69 0 0 1-1.1-2.99 4.41 4.41 0 0 1 2.42-3.96 3.54 3.54 0 0 1 1.58-.36c.6 0 1.14.12 1.63.37s.9.58 1.25 1a4.69 4.69 0 0 1 1.1 2.96 4.5 4.5 0 0 1-1.14 3.01c-.36.4-.78.72-1.27.95-.49.23-1.01.35-1.58.35Zm-3.15-4.32a4.02 4.02 0 0 0 .88 2.48 2.88 2.88 0 0 0 2.28 1.08c.49 0 .92-.1 1.3-.3.4-.2.73-.48 1-.81a4 4 0 0 0 .62-3.78 3.6 3.6 0 0 0-1.65-1.93 2.8 2.8 0 0 0-1.27-.3 2.84 2.84 0 0 0-2.3 1.12 3.87 3.87 0 0 0-.86 2.44ZM115.9 66v-6.94l-3.09 5.4h-.53l-3.1-5.4V66h-.83v-8.52h.86l3.33 5.83 3.34-5.83h.86V66h-.84Zm4.41 0v-8.52h6.43V66h-.84v-7.78h-4.75V66h-.84Zm15.77 0v-7.78h-3.48l-.05 1.8a23.4 23.4 0 0 1-.25 2.93 6.3 6.3 0 0 1-.54 1.84c-.23.44-.52.75-.85.95-.34.18-.74.27-1.2.27v-.74c.3 0 .58-.08.82-.24.24-.16.45-.44.62-.84.16-.4.3-.95.4-1.66.1-.71.16-1.61.2-2.7l.07-2.35h5.09V66h-.83Zm10.12-.74V66h-5.72v-8.52h5.61v.74h-4.77v3.08h4.16v.7h-4.16v3.26h4.88Zm3.03.74v-8.52h.84v3.8h1.28l2.93-3.8h.97l-3.2 4.13 3.4 4.39h-1.03l-3.04-3.96h-1.31V66h-.84Zm8.01-4.32a4.53 4.53 0 0 1 1.06-2.9 3.84 3.84 0 0 1 2.99-1.36c.76.01 1.4.19 1.94.54.54.34.94.79 1.2 1.33l-.66.41a2.66 2.66 0 0 0-1.6-1.37 3.17 3.17 0 0 0-2.29.17c-.39.2-.72.47-1 .82a4.07 4.07 0 0 0-.56 3.77 3.45 3.45 0 0 0 1.68 1.94c.4.19.82.29 1.27.29a3.1 3.1 0 0 0 1.92-.69c.3-.23.54-.53.71-.9l.7.36a2.7 2.7 0 0 1-.82 1.08 4.1 4.1 0 0 1-2.56.9 3.5 3.5 0 0 1-1.6-.37 4.32 4.32 0 0 1-2.09-2.42 4.64 4.64 0 0 1-.29-1.6Z"/>
</svg>
